<svg width="122" height="32" viewBox="0 0 122 32" fill="none" xmlns="http://www.w3.org/2000/svg">
<path d="M69.0049 8.93023L76.0232 6.32558L69.0049 3.64651V0L81.0257 4.83721V7.81395L69.0049 12.6512V8.93023Z" fill="#414C58"/>
<path d="M4.62913 31.5302C2.09058 31.5302 0 30.2651 0 27.4372V27.2884C0 23.8651 2.98654 22.6744 6.64504 22.6744H8.3623V22.0047C8.3623 20.5907 7.76499 19.7721 6.27173 19.7721C4.92778 19.7721 4.25581 20.5163 4.18115 21.5581H0.44798C0.746634 18.4326 3.21053 16.9442 6.49572 16.9442C9.85557 16.9442 12.3195 18.3581 12.3195 21.8558V31.2326H8.51163V29.5954C7.76499 30.6372 6.49572 31.5302 4.62913 31.5302ZM8.3623 26.6186V25.2791H6.79437C4.85312 25.2791 3.8825 25.8 3.8825 27.0651V27.214C3.8825 28.1814 4.4798 28.8512 5.82375 28.8512C7.16769 28.7767 8.3623 28.0326 8.3623 26.6186ZM21.2044 31.5302C17.3219 31.5302 14.4847 29.1488 14.4847 24.386V24.1628C14.4847 19.4 17.4712 16.8698 21.2044 16.8698C24.4149 16.8698 27.0282 18.507 27.3268 22.1535H23.5936C23.3696 20.814 22.623 19.9209 21.2791 19.9209C19.6365 19.9209 18.4419 21.2605 18.4419 24.014V24.4605C18.4419 27.2884 19.4871 28.5535 21.2791 28.5535C22.623 28.5535 23.5936 27.586 23.8176 26.0233H27.4015C27.1775 29.2977 25.0122 31.5302 21.2044 31.5302ZM35.8384 31.5302C31.9559 31.5302 29.1187 29.1488 29.1187 24.386V24.1628C29.1187 19.4 32.1053 16.8698 35.8384 16.8698C39.049 16.8698 41.6622 18.507 41.9608 22.1535H38.2277C38.0037 20.814 37.257 19.9209 35.9131 19.9209C34.2705 19.9209 33.0759 21.2605 33.0759 24.014V24.4605C33.0759 27.2884 34.1212 28.5535 35.9131 28.5535C37.257 28.5535 38.2277 27.586 38.4517 26.0233H42.0355C41.8115 29.2977 39.6463 31.5302 35.8384 31.5302ZM50.5471 31.5302C46.5153 31.5302 43.7528 29.1488 43.7528 24.4605V24.1628C43.7528 19.4744 46.6646 16.8698 50.4725 16.8698C53.9816 16.8698 56.8935 18.8047 56.8935 23.493V25.2047H47.7099C47.8592 27.7349 48.9792 28.7023 50.6218 28.7023C52.1151 28.7023 52.9364 27.8837 53.235 26.9163H56.8935C56.4455 29.5209 54.2056 31.5302 50.5471 31.5302ZM47.7846 22.6H53.011C52.9364 20.5163 51.9657 19.6233 50.3978 19.6233C49.2032 19.6977 48.0832 20.3674 47.7846 22.6ZM59.2827 17.2419H63.2399V19.3256C63.9119 17.986 65.3305 16.9442 67.4957 16.9442C70.0343 16.9442 71.7515 18.507 71.7515 21.8558V31.2326H67.7944V22.4512C67.7944 20.814 67.1224 20.0698 65.7038 20.0698C64.3599 20.0698 63.2399 20.8884 63.2399 22.6744V31.2326H59.2827V17.2419ZM78.9939 13V17.2419H81.6818V20.1442H78.9939V26.7674C78.9939 27.8093 79.4419 28.3302 80.4125 28.3302C81.0098 28.3302 81.3831 28.2558 81.7564 28.107V31.1581C81.3084 31.307 80.4872 31.4558 79.5165 31.4558C76.4553 31.4558 75.0367 30.0419 75.0367 27.214V20.1442H73.3941V17.2419H75.0367V14.6372L78.9939 13ZM96.4651 31.2326H92.5826V29.1488C91.9107 30.4884 90.5667 31.5302 88.4761 31.5302C85.9376 31.5302 84.071 29.9674 84.071 26.693V17.2419H88.0282V26.1721C88.0282 27.8093 88.7001 28.5535 90.0441 28.5535C91.388 28.5535 92.508 27.6605 92.508 25.9488V17.2419H96.4651V31.2326ZM99.377 17.2419H103.334V19.8465C104.155 17.986 105.499 17.093 107.59 17.093V20.9628C104.902 20.9628 103.334 21.7814 103.334 24.0884V31.307H99.377V17.2419ZM115.579 31.5302C111.547 31.5302 108.785 29.1488 108.785 24.4605V24.1628C108.785 19.4744 111.696 16.8698 115.504 16.8698C119.013 16.8698 121.925 18.8047 121.925 23.493V25.2047H112.816C112.966 27.7349 114.086 28.7023 115.728 28.7023C117.222 28.7023 118.043 27.8837 118.341 26.9163H122C121.403 29.5209 119.237 31.5302 115.579 31.5302ZM112.742 22.6H118.043C117.968 20.5163 116.998 19.6233 115.43 19.6233C114.235 19.6977 113.115 20.3674 112.742 22.6Z" fill="#414C58"/>
</svg>
