<svg width="66" height="26" viewBox="0 0 66 26" fill="none" xmlns="http://www.w3.org/2000/svg">
<path d="M12.7679 3.54074H16.7537C17.8474 3.54074 19.2326 3.80308 19.2326 5.67306C19.2326 7.54311 17.2525 8.30511 15.7829 8.30511H12.7679V3.54074ZM12.7679 10.8458H15.0385C18.7712 10.8458 20.6723 11.6669 20.6723 13.8648C20.6723 15.8122 19.1471 16.6354 16.7537 16.6354H13.1204L8.96579 19.5631V19.5641L16.726 19.562C21.3729 19.562 24.5011 17.8779 24.5011 13.9819C24.5011 10.5836 21.7328 9.24874 19.2614 9.24874C20.9692 9.24874 22.9867 7.70864 22.9867 5.09701C22.9867 2.48754 20.6146 0.612061 17.9083 0.612061H9.98788H8.27051L8.96579 2.16507V18.1992L12.7679 15.5199V10.8458Z" fill="#414C58"/>
<path d="M30.7582 3.54074H33.3481C34.4161 3.54074 39.8662 3.81281 39.8662 10.0881C39.8662 17.2481 33.3481 16.6333 33.3481 16.6333L31.1117 16.6354L26.955 19.5631V19.5641H34.4161C39.0641 19.5641 43.8274 16.687 43.8274 10.0881C43.8274 4.23612 39.6675 0.612061 34.4161 0.612061H26.2607L26.955 2.16507V18.1992L30.7582 15.5199V3.54074Z" fill="#414C58"/>
<path d="M49.5473 10.0875C49.5473 4.7288 53.2159 3.22309 55.5922 3.22309C57.9686 3.22309 61.6383 4.7288 61.6383 10.0875C61.6383 15.4462 57.9686 16.9519 55.5922 16.9519C53.2159 16.9519 49.5473 15.4462 49.5473 10.0875ZM45.585 10.0875C45.585 17.6483 51.6577 19.7731 55.5922 19.7731C59.5268 19.7731 65.5995 17.6483 65.5995 10.0875C65.5995 2.52665 59.5268 0.402954 55.5922 0.402954C51.6577 0.402954 45.585 2.52665 45.585 10.0875Z" fill="#414C58"/>
<path d="M0.400391 0.612549V24.2365L4.11493 21.6184V0.612549H0.400391Z" fill="#414C58"/>
<path d="M4.80915 22.4919L0.400391 25.5969H65.3911V22.4919H4.80915Z" fill="#414C58"/>
</svg>
