<svg width="117" height="25" viewBox="0 0 117 25" fill="none" xmlns="http://www.w3.org/2000/svg">
<path d="M67.155 15.335L74.1116 8.5105H67.26V5.29686H78.979V8.56323L72.0215 15.3614H79.1112V18.575H67.1577L67.155 15.335ZM62.2124 0.929592H65.8365V4.23323H62.2124V0.929592ZM62.1635 5.33686H65.7876V18.615H62.1635V5.33686ZM18.3301 11.936C18.3446 8.14071 21.4185 5.07447 25.1991 5.08416C28.9797 5.09385 32.038 8.1758 32.0332 11.9711C32.0284 15.7663 28.9623 18.8405 25.1817 18.8405C23.3592 18.8432 21.6109 18.1158 20.3246 16.8196C19.0384 15.5234 18.3205 13.7655 18.3301 11.936ZM28.5142 11.936C28.5142 10.0505 27.0327 8.48141 25.1817 8.48141C23.3035 8.48141 21.8745 10.0487 21.8745 11.936C21.8745 13.8232 23.3035 15.3905 25.1817 15.3905C27.0327 15.3878 28.5151 13.8214 28.5151 11.936H28.5142ZM48.3879 5.29686H51.9866V6.78414C52.8324 5.69323 54.1283 5.03141 55.6361 5.03141C58.7585 5.03141 60.6367 7.04959 60.6367 10.475V18.575H56.9591V10.9532C56.9591 9.17414 56.1387 8.13505 54.5259 8.13505C53.1503 8.13505 52.0129 9.0905 52.0129 11.3169V18.5669H48.3906L48.3879 5.29686ZM79.3177 11.936C79.3177 7.23505 82.7589 5.02687 85.7473 5.02687C87.4679 5.02687 88.8163 5.66323 89.6883 6.59414V5.29686H93.3106V18.575H89.6883V17.0878C88.8163 18.1232 87.4135 18.8405 85.6948 18.8405C82.8902 18.8405 79.3177 16.6132 79.3177 11.936ZM89.7925 11.9096C89.7925 9.94414 88.3644 8.3505 86.4065 8.3505C84.3962 8.3505 82.8621 9.86414 82.8621 11.9096C82.8621 13.955 84.3962 15.4941 86.4065 15.4941C88.3662 15.4941 89.7943 13.8741 89.7943 11.9096H89.7925ZM94.7758 5.29686H98.3737V6.78414C99.2204 5.69323 100.516 5.03141 102.024 5.03141C105.146 5.03141 107.024 7.04959 107.024 10.475V18.575H103.346V10.9532C103.346 9.17414 102.531 8.13505 100.913 8.13505C99.5373 8.13505 98.3999 9.0905 98.3999 11.3169V18.5669H94.7776L94.7758 5.29686ZM67.155 18.575V15.335L74.1116 8.5105H67.26V5.29686H78.979V8.56323L72.0215 15.3614L67.155 18.575ZM14.4642 11.8205L14.4144 11.926C13.4138 14.0432 11.5736 15.2578 9.36586 15.2578C6.16466 15.2578 3.66075 12.7178 3.66075 9.47596C3.66075 6.15141 6.14745 3.64505 9.44555 3.64505C11.5827 3.64505 13.2064 4.64959 14.2722 6.63232L14.3293 6.73777L17.555 4.66777L17.5006 4.57686C15.8253 1.71232 12.8134 0.00231934 9.44555 0.00231934C4.06373 0.00231934 0.00585938 4.07596 0.00585938 9.47777C0.00585938 14.9687 3.97589 18.9541 9.44555 18.9541C12.9709 18.9541 16.0852 16.9896 17.7768 13.6996L17.8275 13.6005L14.4642 11.8205ZM32.9461 11.936C32.9461 7.23505 36.3872 5.02687 39.3756 5.02687C41.0962 5.02687 42.4437 5.74414 43.3167 6.72596V5.29686H46.939V18.206C46.939 21.9505 44.5845 24.9778 40.1137 24.9778C36.754 24.9778 34.2945 23.2241 33.2313 21.1532L36.4325 19.3478C37.1198 20.7287 38.3342 21.605 40.1091 21.605C42.067 21.605 43.3094 20.065 43.3094 18.3387V17.0878C42.4365 18.1232 41.0346 18.8405 39.3159 18.8405C36.5167 18.8405 32.9461 16.6132 32.9461 11.936ZM43.4208 11.9096C43.4208 9.94414 41.9927 8.3505 40.0349 8.3505C38.0245 8.3505 36.4905 9.86414 36.4905 11.9096C36.4905 13.955 38.0245 15.4941 40.0349 15.4941C41.9927 15.4941 43.4208 13.8741 43.4208 11.9096ZM115.949 8.56323V5.29686H113.462V0.916865H109.84V5.29686H107.59V8.56323H109.836V12.8123C109.836 17.1414 111.211 18.575 115.417 18.575H115.946V15.176C113.724 15.176 113.46 14.8569 113.46 12.786V8.56323H115.949ZM116.718 2.50141C116.545 2.67651 116.309 2.77498 116.063 2.77498C115.817 2.77498 115.582 2.67651 115.408 2.50141C115.232 2.32847 115.133 2.09014 115.137 1.84232C115.138 1.4223 115.419 1.05521 115.824 0.947233C116.228 0.839258 116.654 1.01731 116.863 1.38139C117.071 1.74546 117.01 2.20481 116.714 2.50141H116.718ZM115.501 1.27868C115.349 1.42703 115.265 1.63163 115.269 1.84414C115.266 2.05731 115.349 2.26273 115.499 2.41323C115.648 2.56401 115.851 2.64883 116.062 2.64883C116.274 2.64883 116.477 2.56401 116.625 2.41323C116.777 2.2634 116.861 2.0577 116.857 1.84414C116.86 1.51977 116.666 1.2262 116.368 1.10195C116.069 0.977705 115.726 1.04761 115.499 1.27868H115.501ZM116.044 1.3305C116.138 1.32565 116.232 1.33797 116.321 1.36686C116.425 1.40832 116.489 1.51343 116.479 1.62505C116.484 1.7052 116.447 1.78216 116.38 1.82686C116.335 1.85298 116.285 1.86968 116.233 1.87596C116.303 1.88294 116.366 1.91931 116.407 1.97596C116.442 2.0213 116.461 2.0763 116.462 2.13323V2.20868C116.462 2.23141 116.462 2.25686 116.462 2.28414C116.463 2.30201 116.465 2.31977 116.471 2.33686L116.477 2.34959H116.309C116.309 2.34627 116.309 2.34291 116.309 2.33959V2.32868V2.29596V2.21505C116.322 2.1255 116.285 2.03625 116.213 1.98141C116.151 1.95486 116.082 1.94364 116.014 1.94868H115.873V2.34959H115.692V1.3305H116.044ZM116.237 1.4905C116.169 1.46075 116.095 1.44797 116.021 1.45323H115.868V1.82232H116.03C116.087 1.82506 116.145 1.81736 116.2 1.79959C116.258 1.77344 116.298 1.71881 116.305 1.65557C116.313 1.59233 116.287 1.52971 116.237 1.4905Z" fill="#414C58"/>
</svg>
