<svg width="86" height="32" viewBox="0 0 86 32" fill="none" xmlns="http://www.w3.org/2000/svg">
<path d="M0 16V32H43H86V16V0H43H0V16ZM84.5629 16V30.5592L43.0227 30.5441L1.47493 30.5213L1.45224 15.9773L1.43712 1.44076H43H84.5629V16Z" fill="#414C58"/>
<path d="M7.41211 7.76491V8.17439L7.73735 8.22747C7.91132 8.25022 8.16849 8.29571 8.30463 8.31846L8.54667 8.35638L8.53155 15.9924L8.50886 23.6208L7.96426 23.6815L7.41211 23.7497V24.1971V24.6445H10.2863H13.1606V24.1971V23.7497L12.616 23.6815L12.0638 23.6208L12.0411 20.1478L12.026 16.6824H15.8079H19.5898V20.1251C19.5898 22.999 19.5746 23.5753 19.4839 23.6057C19.4234 23.6284 19.1359 23.6739 18.841 23.7042L18.3039 23.7573V24.1971V24.6445H21.2538H24.2037V24.1971V23.7497L23.6969 23.6967C23.4246 23.6663 23.1523 23.6284 23.0918 23.6057C23.0086 23.5753 22.9935 22.2104 22.9935 15.9621V8.35638L23.296 8.31088C23.4624 8.28813 23.7347 8.24263 23.9011 8.21988L24.2037 8.17439V7.76491V7.35543H21.2538H18.3039V7.76491V8.17439L18.667 8.21988C18.8637 8.25022 19.1511 8.28813 19.3099 8.31088L19.5898 8.35638V11.6095V14.8625H15.8079H12.026V11.6095V8.35638L12.3512 8.3033C13.2438 8.1668 13.1606 8.21988 13.1606 7.76491V7.35543H10.2863H7.41211V7.76491Z" fill="#414C58"/>
<path d="M28.6591 7.56783C27.0859 8.38678 27.7137 10.7678 29.4987 10.7678C30.0357 10.7678 30.4518 10.5707 30.7997 10.1688C31.367 9.50147 31.367 8.62185 30.7921 7.95455C30.2627 7.32517 29.408 7.17351 28.6591 7.56783Z" fill="#414C58"/>
<path d="M34.5664 7.72699V8.09856L35.0807 8.15922L35.5875 8.22747L35.6102 15.9772L35.6253 23.7194L35.4211 23.7649C35.3001 23.7877 35.0656 23.8256 34.8916 23.8483L34.5664 23.9014V24.273V24.6445H37.2515H39.9367V24.273V23.9014L39.619 23.8483C39.4375 23.8256 39.203 23.7877 39.0895 23.7649L38.8777 23.7194V15.5374V7.35543H36.7221H34.5664V7.72699Z" fill="#414C58"/>
<path d="M44.9515 9.28149L43.4161 9.74405V11.0483V12.3602H42.2437H41.0713V12.9289V13.4976H42.1983H43.3329L43.3556 18.1004C43.3858 23.2265 43.3858 23.1734 43.9077 23.9014C44.7019 24.9933 47.077 25.1071 49.9058 24.182L50.3748 24.0227V23.6057V23.1886L50.1479 23.2417C50.0193 23.272 49.4822 23.2948 48.9528 23.2948C47.5762 23.3023 47.1375 23.1355 46.8047 22.4606L46.6307 22.1042L46.608 17.7971L46.5853 13.4976H48.03H49.4671V12.9289V12.3602H48.03H46.5929V10.5782C46.5929 9.59998 46.5702 8.79618 46.5399 8.80377C46.5021 8.81135 45.7911 9.02367 44.9515 9.28149Z" fill="#414C58"/>
<path d="M56.5768 12.0265C55.4422 12.1782 54.0278 12.7469 53.2336 13.3763C52.3033 14.1194 51.5544 15.3023 51.2065 16.5687C50.972 17.418 50.9115 19.3061 51.0855 20.3147C51.3351 21.7251 51.7435 22.5971 52.568 23.4313C53.5513 24.4246 54.9052 24.9099 56.955 24.9933C59.1182 25.0919 60.8881 24.5156 62.174 23.3023C63.3917 22.1573 63.959 20.8303 64.0422 18.9573C64.0952 17.7668 63.9817 16.8644 63.6565 15.909C63.3237 14.9156 63.006 14.4076 62.2874 13.6872C61.7958 13.1867 61.5462 13.0123 60.9638 12.7166C59.9729 12.2312 59.209 12.0568 57.9004 12.0189C57.318 12.0038 56.7205 12.0113 56.5768 12.0265ZM57.9383 12.9668C58.8232 13.1336 59.4283 13.6417 59.867 14.5971C60.3435 15.6284 60.5099 16.6294 60.5099 18.5327C60.5099 22.3317 59.5872 24.0455 57.5223 24.0531C56.7734 24.0606 56.2289 23.8483 55.7675 23.363C54.8069 22.3772 54.3379 20.0872 54.5346 17.4028C54.7312 14.7109 55.5405 13.2549 56.9777 12.9668C57.4239 12.8834 57.492 12.8834 57.9383 12.9668Z" fill="#414C58"/>
<path d="M73.4589 12.1403C72.5134 12.2616 71.3486 12.7848 70.3578 13.5355C70.0552 13.763 69.7678 13.9526 69.73 13.9526C69.6922 13.9526 69.6619 13.5962 69.6619 13.1564V12.3602H67.5063H65.3506V12.7696V13.1791L65.7136 13.2246C65.9103 13.255 66.1599 13.2929 66.2809 13.3156L66.4851 13.3611V18.5403V23.7194L66.054 23.7649C65.3506 23.8483 65.3506 23.8483 65.3506 24.273V24.6445H68.0735H70.7965V24.2654C70.7965 24.0531 70.7738 23.8862 70.7435 23.8787C70.7057 23.8711 70.4637 23.8332 70.1914 23.7801L69.6997 23.6967V19.2986V14.9005L70.0779 14.6502C70.2897 14.5137 70.7284 14.2938 71.0612 14.1649C71.5831 13.9526 71.7571 13.9223 72.347 13.9147C73.0959 13.9147 73.4438 14.0436 73.8371 14.4606C74.4346 15.09 74.5178 15.7952 74.4876 20.2464L74.4649 23.6967L73.9732 23.7801C73.701 23.8332 73.4589 23.8711 73.4287 23.8787C73.3908 23.8862 73.3681 24.0531 73.3681 24.2654V24.6445H76.0911H78.814V24.273C78.814 23.8483 78.814 23.8483 78.1182 23.7725L77.687 23.7194L77.6644 19.3061C77.6417 14.9384 77.6341 14.8929 77.4601 14.3696C77.2257 13.6493 76.9987 13.2777 76.5449 12.8682C76.0987 12.4663 75.5314 12.2313 74.775 12.1327C74.1699 12.0493 74.117 12.0493 73.4589 12.1403Z" fill="#414C58"/>
<path d="M26.7754 12.7317V13.1033L27.1385 13.1488C27.3351 13.1791 27.5847 13.217 27.7057 13.2398L27.91 13.2853L27.8948 18.4872L27.8721 23.6967L27.3805 23.7801C27.1082 23.8332 26.8662 23.8711 26.8359 23.8787C26.7981 23.8862 26.7754 24.0531 26.7754 24.2654V24.6445H29.5059H32.2289L32.2062 24.2957C32.1759 23.8787 32.123 23.8332 31.5255 23.7725L31.0868 23.727V18.0398V12.3602H28.9311H26.7754V12.7317Z" fill="#414C58"/>
</svg>
