<svg width="101" height="23" viewBox="0 0 101 23" fill="none" xmlns="http://www.w3.org/2000/svg">
<g clip-path="url(#clip0)">
<path d="M98.7748 0L93.266 11.8064L91.1944 7.33288H88.9541L92.3607 14.6504H94.1714L101 0H98.7748Z" fill="#414C58"/>
<path d="M75.1437 21.9218H79.5784V13.7895C79.5784 11.9294 80.6526 10.6227 82.2484 10.6227C83.7829 10.6227 84.5808 11.6988 84.5808 13.2515V21.9218H89.0155V12.4059C89.0155 9.17763 87.0821 6.90244 83.9517 6.90244C81.9569 6.90244 80.5605 7.76333 79.517 9.33136H79.425V7.33288H75.1284L75.1437 21.9218ZM66.4278 6.93319C61.7937 6.93319 58.694 10.2691 58.694 14.6658C58.694 19.0317 61.7937 22.3983 66.4278 22.3983C71.062 22.3983 74.1617 19.0317 74.1617 14.6658C74.177 10.2691 71.062 6.93319 66.4278 6.93319ZM66.3972 19.1085C64.2949 19.1085 63.1747 17.3406 63.1747 14.6658C63.1747 11.9601 64.2796 10.223 66.3972 10.223C68.4994 10.223 69.6656 11.9601 69.6656 14.6658C69.681 17.3406 68.5148 19.1085 66.3972 19.1085ZM46.0499 21.9218H58.5099V18.4168H51.4512V18.3245L58.203 10.7457V7.31751H46.0499V10.8379H52.8783V10.9301L46.0499 18.5705V21.9218ZM40.3569 21.9218H44.8223V7.33288H40.3569V21.9218ZM29.9991 21.9218H34.4491V15.2192C34.4491 12.1754 36.2752 10.8225 39.0526 11.2069H39.1447V7.36363C38.9145 7.27139 38.6536 7.25602 38.2393 7.25602C36.5053 7.25602 35.3391 8.05541 34.3417 9.7618H34.2496V7.33288H29.9991V21.9218ZM21.8356 19.1239C19.8715 19.1239 18.6746 17.848 18.4444 15.8802H28.9403C28.971 12.7441 28.1424 10.2384 26.4084 8.67033C25.1808 7.53273 23.5696 6.90244 21.5134 6.90244C17.1248 6.90244 14.0865 10.2384 14.0865 14.6043C14.0865 19.0009 16.9867 22.3522 21.8049 22.3522C23.631 22.3522 25.0734 21.8603 26.2703 21.0455C27.5439 20.1693 28.4646 18.8779 28.7101 17.602H24.4443C24.03 18.5551 23.1399 19.1239 21.8356 19.1239ZM21.6055 10.0846C23.1706 10.0846 24.2448 11.253 24.4289 12.9594H18.4751C18.828 11.2376 19.7641 10.0846 21.6055 10.0846ZM5.21713 21.9218H9.88197L14.9458 7.33288H10.4804L7.64162 16.7104H7.58024L4.74144 7.33288H0.15332L5.21713 21.9218ZM40.3569 2.13684H44.8223V6.10305H40.3569V2.13684Z" fill="#414C58"/>
</g>
<defs>
<clipPath id="clip0">
<rect width="101" height="22.4444" fill="white"/>
</clipPath>
</defs>
</svg>
